# xmcd CD database file
#
# Track frame offsets:
#	150
#	23765
#	42897
#	66912
#	90927
#	123545
#	153040
#	177382
#	190212
#	218535
#	237350
#	265125
#
# Disc length: 3859 seconds
#
# Revision: 3
# Processed by: cddbd v1.5PL3 Copyright (c) Steve Scherf et al.
# Submitted via: CDex 1.50
#
DISCID=970f110c
DTITLE=寺井尚子 - ベスト
DYEAR=2003
DGENRE=Jazz
TTITLE0=Libertango
TTITLE1=Thinking Of You
TTITLE2=Baijos(Kisses)
TTITLE3=Shadow Play
TTITLE4=Spain
TTITLE5=Pure Moment
TTITLE6=First Love
TTITLE7=Donna Lee
TTITLE8=Stolen Moments
TTITLE9=La Valse a Margaux
TTITLE10=All For You
TTITLE11=Will Someone Ever Look at Me That Way
EXTD=YEAR: 2003
EXTT0=
EXTT1=
EXTT2=
EXTT3=
EXTT4=
EXTT5=
EXTT6=
EXTT7=
EXTT8=
EXTT9=
EXTT10=
EXTT11=
PLAYORDER=
